<svg xmlns="http://www.w3.org/2000/svg" width="256" height="256" viewBox="0 0 256 256">
  <g fill="none" fill-rule="evenodd">
    <rect width="256" height="256" fill="#000" rx="10"/>
    <g transform="translate(188 188)">
      <rect width="58" height="58" fill="#6927FF" rx="29"/>
      <path fill="#FFF" fill-rule="nonzero" d="M24.8536846,45.0425532 L19.7446809,45.0425532 L19.7446809,17.3887814 L20.9708417,17.3887814 L22.995865,19.8007737 C23.4541295,19.3644938 23.9557357,18.9531504 24.5006989,18.5667311 C25.045662,18.1803118 25.6122913,17.8468744 26.2006037,17.5664088 C26.7889162,17.2859431 27.3988942,17.0646903 28.030556,16.9026435 C28.6622178,16.7405967 29.3000628,16.6595745 29.9441101,16.6595745 C31.3436745,16.6595745 32.6596168,16.9119897 33.8919766,17.4168279 C35.1243364,17.921666 36.201861,18.6352844 37.1245826,19.5577047 C38.0473043,20.480125 38.774943,21.5926219 39.3075206,22.8952289 C39.8400982,24.1978359 40.106383,25.640654 40.106383,27.2237266 C40.106383,28.8691249 39.8400982,30.3493379 39.3075206,31.6644101 C38.774943,32.9794822 38.0473043,34.0950954 37.1245826,35.011283 C36.201861,35.9274707 35.1243364,36.6286243 33.8919766,37.1147647 C32.6596168,37.6009051 31.3436745,37.8439716 29.9441101,37.8439716 C29.4982312,37.8439716 29.0554553,37.7941118 28.6157691,37.6943907 C28.176083,37.5946696 27.7425961,37.4606714 27.3152955,37.292392 C26.8879948,37.1241126 26.4668933,36.9340221 26.0519782,36.7221148 C25.6370631,36.5102074 25.2376359,36.2920708 24.8536846,36.0676983 L24.8536846,45.0425532 Z M35.0159574,27.2237266 C35.0159574,26.3760972 34.882815,25.6157352 34.6165262,24.9426177 C34.3502374,24.2695002 33.9879663,23.6992286 33.5297018,23.2317859 C33.0714374,22.7643432 32.5326751,22.4059759 31.9133988,22.1566731 C31.2941225,21.9073703 30.6376995,21.7827208 29.9441101,21.7827208 C29.2505207,21.7827208 28.597194,21.9073703 27.9841105,22.1566731 C27.371027,22.4059759 26.835361,22.7643432 26.3770966,23.2317859 C25.9188322,23.6992286 25.556561,24.2695002 25.2902722,24.9426177 C25.0239834,25.6157352 24.890841,26.3760972 24.890841,27.2237266 C24.890841,28.0339606 25.0239834,28.7756253 25.2902722,29.4487427 C25.556561,30.1218602 25.9188322,30.695248 26.3770966,31.1689233 C26.835361,31.6425985 27.371027,32.0103146 27.9841105,32.2720825 C28.597194,32.5338504 29.2505207,32.6647324 29.9441101,32.6647324 C30.6376995,32.6647324 31.2941225,32.5338504 31.9133988,32.2720825 C32.5326751,32.0103146 33.0714374,31.6425985 33.5297018,31.1689233 C33.9879663,30.695248 34.3502374,30.1218602 34.6165262,29.4487427 C34.882815,28.7756253 35.0159574,28.0339606 35.0159574,27.2237266 Z"/>
    </g>
    <text fill="#FFF" font-family="HelveticaNeue-Medium, Helvetica Neue" font-size="33" font-weight="400" letter-spacing="1.414">
      <tspan x="85.953" y="108">Pithy </tspan> <tspan x="43.668" y="155">Template</tspan> <tspan x="193.747" y="155" letter-spacing="1.458">s</tspan>
    </text>
  </g>
</svg>
